<svg fill="none" height="91" viewBox="0 0 44 91" width="44" xmlns="http://www.w3.org/2000/svg"><path clip-rule="evenodd" d="M35.23,16.88h-2.81v2.3H30.5v3.34h-1.17v-3.34h-4.11v3.34h-1.17v-3.34l-1.75,0l0-11.64c0.49,0.01,2.43,0.07,2.55,0.22c0.12,0.16-0.01,0.7,0.13,0.77c0.22,0.11,2.59,0.71,2.59,0.71V5.97c0,0-2.09-1.06-2.35-1.23c-0.44-0.28-0.21-0.82-0.45-1.03c-0.23-0.2-2-0.49-2.47-0.57V2.68c0-0.22-0.14-0.39-0.31-0.39s-0.31,0.18-0.31,0.39v16.5l-1.75,0v3.34h-1.17v-3.34h-4.11v3.34H13.5v-3.34h-1.92v-2.3H8.77l-1.3,0.38v15.65l1.3,3.95v12.25l4.39,0.66v8.15l-0.66,2.27v29.34l2.88,0.72h0.86c0-4.19-0.02-14.32,0-14.49c0.3-3.06,2.79-5.45,5.76-5.45s5.45,2.39,5.76,5.45c0.02,0.17,0.01,10.29,0,14.49h0.86l2.88-0.72V60.18l-0.66-2.27v-8.15l4.39-0.66V36.86l1.3-3.95V17.26L35.23,16.88z M14.41,35.43h-2.36v-4.16c0-0.65,0.53-1.18,1.18-1.18c0.65,0,1.18,0.53,1.18,1.18V35.43z M20.82,31.27c0-0.65,0.53-1.18,1.18-1.18s1.18,0.53,1.18,1.18v4.16h-2.36V31.27z M18.79,35.43h-2.36v-4.16c0-0.65,0.53-1.18,1.18-1.18c0.65,0,1.18,0.53,1.18,1.18V35.43z M22,45.65c-1.47,0-2.67-1.19-2.67-2.67c0-1.48,1.19-2.67,2.67-2.67s2.67,1.19,2.67,2.67C24.67,44.46,23.47,45.65,22,45.65z M27.57,35.43h-2.36v-4.16c0-0.65,0.53-1.18,1.18-1.18c0.65,0,1.18,0.53,1.18,1.18V35.43z M31.96,35.43h-2.36v-4.16c0-0.65,0.53-1.18,1.18-1.18c0.65,0,1.18,0.53,1.18,1.18V35.43z M33.78,49.98L33.78,49.98l1.45-0.21L33.78,49.98z M22.75,44.09c0,0.04-0.01,0.08-0.02,0.12c-0.17-0.04-0.31-0.16-0.4-0.31l-0.53-0.92v-1.48c0-0.17,0.07-0.33,0.19-0.45c0.12,0.12,0.19,0.28,0.19,0.45v1.48l0.44,0.76C22.7,43.86,22.75,43.97,22.75,44.09z M11.22,50.13v1.4h-1v-1.54l-1.45-0.21H6.83v1.75H5.67v-1.75H3.73l-1.45,0.18v1.58h-1v-1.35L0,50.33v7.59l0.66,2.27v26.37l11.18,2.8V60.18l0.66-2.27v-7.6L11.22,50.13z M7.01,66.71H5.49v-7.67h1.52V66.71z M33.78,49.98L33.78,49.98l1.45-0.21L33.78,49.98z M42.72,50.17v1.35h-1v-1.58l-1.45-0.18h-1.94v1.75h-1.17v-1.75h-1.94l-1.45,0.21v1.54h-1v-1.4l-1.28,0.19v7.6l0.66,2.27v29.17l11.18-2.8V60.18L44,57.92v-7.59L42.72,50.17z M38.51,66.71h-1.52v-7.67h1.52V66.71z M32.78,50.13L32.78,50.13l-1.28,0.19L32.78,50.13z M35.23,49.77l-1.45,0.21v0L35.23,49.77z M10.22,49.98L10.22,49.98l-1.45-0.21L10.22,49.98zM14.66,4.92c-0.43,2.44-2.75,4.06-5.2,3.63c-1.9-0.33-3.3-1.82-3.63-3.61c0.58,0.81,1.47,1.41,2.52,1.59c2.15,0.38,4.19-1.06,4.57-3.2c0.22-1.25-0.17-2.47-0.96-3.34C13.86,0.79,15.03,2.81,14.66,4.92z" fill="#ffffff" fill-rule="evenodd"/></svg>
