<svg width="208" height="64" viewBox="0 0 208 64" fill="none" xmlns="http://www.w3.org/2000/svg" style="width: 100%; height: 100%;"><path d="M202.796 10.183H89.536V55.65h113.26V10.183z" fill="#FF6363"></path><path d="M204.878 55.65H158.66c-1.417 0-2.568-1.019-2.568-2.274 0-1.254 1.151-2.272 2.568-2.272h41.134c-1.269-.946-2.619-2.315-2.619-4.56 0-2.842 2.162-4.283 3.595-5.233 1.294-.86 1.541-1.118 1.541-1.6 0-.478-.247-.732-1.541-1.596-1.433-.95-3.595-2.387-3.595-5.228 0-2.841 2.162-4.274 3.595-5.224 1.294-.854 1.541-1.109 1.541-1.582 0-.477-.247-.727-1.541-1.591-1.433-.95-3.595-2.382-3.595-5.224 0-2.227 1.335-3.591 2.598-4.537H158.66c-1.417 0-2.568-1.018-2.568-2.273 0-1.255 1.151-2.273 2.568-2.273h46.218c1.417 0 2.567 1.018 2.567 2.273 0 2.842-2.161 4.274-3.594 5.224-1.294.855-1.54 1.11-1.54 1.586 0 .478.246.728 1.54 1.592 1.433.95 3.594 2.382 3.594 5.223 0 2.842-2.161 4.274-3.594 5.224-1.294.855-1.54 1.11-1.54 1.582 0 .477.246.732 1.54 1.591 1.433.95 3.594 2.387 3.594 5.228 0 2.842-2.161 4.283-3.594 5.233-1.294.859-1.54 1.118-1.54 1.6s.246.737 1.54 1.6c1.433.95 3.594 2.392 3.594 5.233 0 1.26-1.15 2.278-2.567 2.278z" fill="#FF6363"></path><path d="m122.382 35.552-4.132-1.274c-.352 2.943-1.891 3.118-2.594 3.118-1.407 0-2.374-.703-2.374-2.591v-8.871h7.122v-4.04h-7.122v-6.017h-5.671v6.016h-2.813v4.04h2.813v9.838c0 4.084 2.99 6.368 7.386 6.368 4.132 0 6.813-2.02 7.385-6.587zm2.656-12.253-.879 5.138 4.528.483.747-2.81c.924-.483 1.847-.571 3.034-.571 3.209 0 3.253 2.415 3.253 4.435v.659c-1.012-.132-2.154-.176-3.253-.176-4.528 0-9.232 1.142-9.232 6.017 0 4.128 3.253 5.665 6.11 5.665 3.209 0 5.232-1.932 6.375-3.952v.044c.263 2.371 1.714 3.908 4.352 3.908 1.23 0 2.505-.351 3.56-.922l-.044-2.986a2.98 2.98 0 0 1-.835.131c-.923 0-1.363-.395-1.363-1.537v-8.608c0-4.523-3.604-6.719-7.868-6.719-3.253 0-5.012.395-8.485 1.8zm10.683 10.32c-.264 3.118-2.33 4.48-4.308 4.48-1.715 0-2.33-1.01-2.33-2.284 0-2.152 1.758-2.723 3.78-2.723.923 0 1.934.132 2.858.264v.263zm32.699-2.283c0-6.193-3.473-9.838-8.484-9.838-3.605 0-5.627 1.889-6.682 4.172v-3.777h-8.528v4.26h2.857v20.51h-2.637v4.391h11.825v-4.392h-3.517v-7.465c1.187 1.844 3.209 2.942 6.066 2.942 5.979 0 9.1-4.963 9.1-10.803zm-5.891.57c0 3.953-1.934 5.754-4.615 5.754-2.814 0-4.66-1.977-4.66-5.226l.044-.703c.132-3.338 1.67-5.753 4.616-5.753 2.725 0 4.615 2.064 4.615 5.928zm27.224 3.558-4.747-.878c-.22 1.185-1.055 3.074-4.089 3.074-2.857 0-4.352-1.625-4.659-4.7h13.012c.219-1.01.307-1.976.307-2.854-.088-5.138-3.824-8.608-9.319-8.608-6.286 0-9.935 4.568-9.935 10.672 0 6.631 4.308 9.97 10.199 9.97 5.714 0 8.967-3.163 9.231-6.676zm-6.022-5.797h-7.429c.351-2.46 1.626-4.128 3.956-4.128 2.681 0 3.737 2.151 3.473 4.128z" fill="#fff"></path><path d="m30.645 47.211-9.049 15.586h50.548l-9.049-15.586h-32.45zM56.231 22.273H37.51v9.352H56.23v-9.352z" fill="#FF6363"></path><path d="M84.313.453H9.427C4.435.453.067 4.505.067 9.804v43.641c0 5.3 4.368 9.352 9.36 9.352h8.425l10.297-18.08c.312-.311.936-.623 1.56-.623H64.03c.624 0 .936.312 1.249.935l10.296 18.08h8.737c5.305 0 9.36-4.364 9.36-9.352V10.116c0-5.611-4.055-9.663-9.36-9.663zM6.619 6.999c.624-.624 1.56-.624 2.184 0 .312.312.624.935.624 1.247 0 .311 0 .935-.624.935-.312.312-.624.623-.936.623-.312 0-.936-.311-1.248-.623-.312-.312-.312-.624-.312-.935 0-.312 0-.935.312-1.247zm2.184 48.94c-.312.312-.624.624-.936.624-.312 0-.936-.312-1.248-.624-.312-.311-.312-.623-.312-.935 0-.311 0-.935.312-.935.624-.624 1.56-.624 2.184 0 .312 0 .624.623.624.935 0 .312-.312.624-.624.935zm11.545-18.08c-5.928 0-10.92-4.987-10.92-10.91s4.991-10.91 10.92-10.91c5.928 0 10.92 4.987 10.92 10.91s-4.992 10.91-10.92 10.91zm39.003-4.675c0 .935-.624 1.558-1.56 1.558H35.95c-.936 0-1.56-.623-1.56-1.558v-12.47c0-.935.624-1.558 1.56-1.558h21.842c.936 0 1.56.623 1.56 1.559v12.469zm14.041 4.675c-5.928 0-10.92-4.987-10.92-10.91s4.992-10.91 10.92-10.91c5.929 0 10.921 4.987 10.921 10.91s-4.992 10.91-10.921 10.91zm13.417 18.08c-.312.312-.624.624-1.248.624s-.936-.312-1.248-.312v-1.247c0-.311 0-.935.312-.935.624-.624 1.56-.624 2.184 0 .312.311.312.623.312.935.312.312 0 .624-.312.935zm0-46.758c-.312.312-.624.623-.936.623-.312 0-.936-.311-1.248-.623-.312-.312-.312-.624-.312-.935 0-.312 0-.935.312-.935.624-.624 1.56-.624 2.184 0 .312 0 .624.623.624.935 0 .311-.312.623-.624.935z" fill="#33437E"></path></svg>
